Format                           : MPEG-4
Format profile                   : Base Media
Codec ID                         : isom
File size                        : 1.30 GiB
Duration                         : 1h 53mn
Overall bit rate                 : 1 636 Kbps
Encoded date                     : UTC 2011-08-03 01:52:43
Tagged date                      : UTC 2011-08-03 01:52:43

Video
ID                               : 1
Format                           : AVC
Format/Info                      : Advanced Video Codec
Format profile                   : High@L4.2
Format settings, CABAC           : Yes
Format settings, ReFrames        : 4 frames
Format settings, GOP             : M=1, N=21
Codec ID                         : avc1
Codec ID/Info                    : Advanced Video Coding
Duration                         : 1h 53mn
Bit rate                         : 1 504 Kbps
Maximum bit rate                 : 7 585 Kbps
Width                            : 720 pixels
Height                           : 304 pixels
Display aspect ratio             : 2.35:1
Frame rate mode                  : Constant
Frame rate                       : 29.000 fps
Color space                      : YUV
Chroma subsampling               : 4:2:0
Bit depth                        : 8 bits
Scan type                        : Progressive
Bits/(Pixel*Frame)               : 0.237
Stream size                      : 1.20 GiB (92%)
Audio
ID                               : 2
Format                           : AAC
Format/Info                      : Advanced Audio Codec
Format profile                   : LC
Codec ID                         : 40
Duration                         : 1h 53mn
Bit rate mode                    : Variable
Bit rate                         : 128 Kbps
Maximum bit rate                 : 168 Kbps
Channel(s)                       : 2 channels
Channel positions                : Front: L R
Sampling rate                    : 44.1 KHz
Compression mode                 : Lossy
Stream size                      : 104 MiB (8%)
Language                         : English
Encoded date                     : UTC 2011-08-03 01:53:38
Tagged date                      : UTC 2011-08-03 01:53:40
Material_Duration                : 6831868
Material_StreamSize              : 109316998


